<svg version="1.1" id="Layer_1" xmlns="http://www.w3.org/2000/svg" xmlns:xlink="http://www.w3.org/1999/xlink" x="0px" y="0px"
	 width="100%" viewBox="0 0 624 336" enable-background="new 0 0 624 336" xml:space="preserve">
<path fill="#000000" opacity="1.000000" stroke="none" 
	d="
M240.074066,288.901367 
	C244.389496,291.474243 248.314697,294.009521 252.413757,296.222809 
	C255.991196,298.154419 258.142639,300.662781 257.231506,305.862488 
	C245.633072,307.125183 233.832230,307.816742 221.940109,306.321472 
	C222.040878,303.047363 224.527328,304.356354 225.254013,303.074554 
	C224.594604,301.994843 223.452805,302.454956 222.555893,302.213379 
	C193.204712,294.307648 170.584366,277.370026 154.545563,251.588135 
	C136.524002,222.619049 130.517288,190.921539 133.834335,157.346481 
	C136.994400,125.360489 149.234940,96.950333 169.207443,71.835876 
	C171.250443,69.266907 173.419968,65.670593 177.156311,69.278564 
	C189.861908,81.547691 206.232269,86.266769 222.224564,92.037834 
	C243.677048,99.779297 265.079315,107.768051 284.273590,120.494011 
	C297.330475,129.150833 308.549408,139.686142 317.315735,152.744400 
	C318.227722,154.102921 318.952454,155.683807 320.611053,156.384918 
	C322.514740,156.534882 323.146393,154.967331 323.974091,153.804047 
	C340.735596,130.246429 363.479034,114.588715 389.875610,103.688675 
	C406.348602,96.886414 423.008423,90.604431 439.903961,84.927231 
	C448.889801,81.907845 456.420441,76.396439 463.647491,70.415916 
	C468.377808,66.501472 468.834869,66.620811 472.759186,71.478233 
	C490.146881,93.000351 501.938324,117.238640 506.632751,144.522400 
	C514.210083,188.561142 506.657990,229.296478 478.274567,264.939087 
	C462.549255,284.686218 441.933655,296.790985 417.664825,302.607788 
	C417.271973,304.223297 419.540192,303.662750 418.673676,306.117889 
	C407.750793,308.311401 396.271759,306.423279 384.808228,305.931671 
	C384.078125,301.776245 385.214447,299.109833 388.265686,297.270020 
	C390.831329,295.723053 393.362885,294.117340 395.958344,292.622437 
	C430.352203,272.812683 452.244263,243.592712 460.208252,204.743774 
	C464.550171,183.563675 464.956665,162.110275 456.933411,141.327621 
	C455.941437,138.758148 455.266266,136.239166 451.471039,137.103546 
	C425.641968,142.986176 399.941467,149.264374 376.128479,161.371155 
	C355.675262,171.769806 341.029358,188.005997 329.876068,207.716217 
	C328.237823,210.611313 326.582733,213.512802 324.700562,216.249802 
	C322.397125,219.599472 319.826385,219.304108 317.460632,216.228912 
	C316.551056,215.046555 315.721619,213.771454 315.052582,212.439697 
	C298.923584,180.332626 272.961578,160.305695 238.901413,150.009262 
	C224.408508,145.628067 209.930023,141.235443 195.141815,137.952194 
	C187.396118,136.232513 187.007553,136.457870 184.362961,144.047974 
	C178.417542,161.111511 178.074036,178.646973 180.550613,196.280396 
	C185.456451,231.210373 201.924637,259.619690 229.557404,281.524475 
	C232.813995,284.106018 236.351883,286.332703 240.074066,288.901367 
M334.118042,168.217224 
	C334.837769,167.547287 335.623993,166.934845 336.263245,166.195343 
	C337.567505,164.686569 338.176605,163.066467 336.583038,161.342834 
	C335.578766,160.256592 334.303955,159.852188 332.987305,160.489243 
	C330.966461,161.466995 331.058807,163.393204 331.260803,165.237488 
	C331.412872,166.626007 332.035309,167.760315 334.118042,168.217224 
z"/>
</svg>